<mxfile host="app.diagrams.net" modified="2022-05-21T00:47:24.855Z" agent="5.0 (Windows NT 6.3; Win64; x64) AppleWebKit/537.36 (KHTML, like Gecko) Chrome/101.0.4951.67 Safari/537.36" etag="jZiIOskeVSFCeWWNxdRO" version="17.4.3" type="github">
  <diagram id="MTaZF45_U9Mh6Qyfvl6g" name="Page-1">
    <mxGraphModel dx="868" dy="393" grid="1" gridSize="10" guides="1" tooltips="1" connect="1" arrows="1" fold="1" page="1" pageScale="1" pageWidth="827" pageHeight="1169" math="0" shadow="0">
      <root>
        <mxCell id="0" />
        <mxCell id="1" parent="0" />
        <mxCell id="6TZL8s2kXc8YbJ28X2sE-21" value="" style="jumpSize=5;orthogonalLoop=1;jettySize=auto;html=1;endArrow=diamondThin;endFill=1;startSize=9;endSize=15;targetPerimeterSpacing=0;strokeWidth=1;jumpStyle=none;rounded=0;" edge="1" parent="1" source="6TZL8s2kXc8YbJ28X2sE-1" target="6TZL8s2kXc8YbJ28X2sE-11">
          <mxGeometry relative="1" as="geometry" />
        </mxCell>
        <mxCell id="6TZL8s2kXc8YbJ28X2sE-1" value="PessoaFisica" style="swimlane;fontStyle=0;childLayout=stackLayout;horizontal=1;startSize=26;fillColor=none;horizontalStack=0;resizeParent=1;resizeParentMax=0;resizeLast=0;collapsible=1;marginBottom=0;" vertex="1" parent="1">
          <mxGeometry x="30" y="130" width="170" height="77" as="geometry" />
        </mxCell>
        <mxCell id="6TZL8s2kXc8YbJ28X2sE-3" value="+ cpf: string" style="text;strokeColor=none;fillColor=none;align=left;verticalAlign=top;spacingLeft=4;spacingRight=4;overflow=hidden;rotatable=0;points=[[0,0.5],[1,0.5]];portConstraint=eastwest;" vertex="1" parent="6TZL8s2kXc8YbJ28X2sE-1">
          <mxGeometry y="26" width="170" height="26" as="geometry" />
        </mxCell>
        <mxCell id="6TZL8s2kXc8YbJ28X2sE-4" value="+ dataNascimento: dateTime&#xa;" style="text;strokeColor=none;fillColor=none;align=left;verticalAlign=top;spacingLeft=4;spacingRight=4;overflow=hidden;rotatable=0;points=[[0,0.5],[1,0.5]];portConstraint=eastwest;" vertex="1" parent="6TZL8s2kXc8YbJ28X2sE-1">
          <mxGeometry y="52" width="170" height="25" as="geometry" />
        </mxCell>
        <mxCell id="6TZL8s2kXc8YbJ28X2sE-20" style="orthogonalLoop=1;jettySize=auto;html=1;endArrow=diamondThin;endFill=1;endSize=15;strokeWidth=1;startSize=9;jumpSize=8;targetPerimeterSpacing=0;rounded=0;" edge="1" parent="1" source="6TZL8s2kXc8YbJ28X2sE-6" target="6TZL8s2kXc8YbJ28X2sE-11">
          <mxGeometry relative="1" as="geometry">
            <mxPoint x="450" y="82" as="targetPoint" />
          </mxGeometry>
        </mxCell>
        <mxCell id="6TZL8s2kXc8YbJ28X2sE-6" value="Endereco" style="swimlane;fontStyle=0;childLayout=stackLayout;horizontal=1;startSize=26;fillColor=none;horizontalStack=0;resizeParent=1;resizeParentMax=0;resizeLast=0;collapsible=1;marginBottom=0;" vertex="1" parent="1">
          <mxGeometry x="590" y="140.5" width="140" height="56" as="geometry" />
        </mxCell>
        <mxCell id="6TZL8s2kXc8YbJ28X2sE-10" value="+ comercial: bool" style="text;strokeColor=none;fillColor=none;align=left;verticalAlign=top;spacingLeft=4;spacingRight=4;overflow=hidden;rotatable=0;points=[[0,0.5],[1,0.5]];portConstraint=eastwest;" vertex="1" parent="6TZL8s2kXc8YbJ28X2sE-6">
          <mxGeometry y="26" width="140" height="30" as="geometry" />
        </mxCell>
        <mxCell id="6TZL8s2kXc8YbJ28X2sE-11" value="Pessoa" style="swimlane;fontStyle=2;childLayout=stackLayout;horizontal=1;startSize=26;fillColor=none;horizontalStack=0;resizeParent=1;resizeParentMax=0;resizeLast=0;collapsible=1;marginBottom=0;" vertex="1" parent="1">
          <mxGeometry x="320" y="124.5" width="140" height="88" as="geometry" />
        </mxCell>
        <mxCell id="6TZL8s2kXc8YbJ28X2sE-13" value="+ nome: string" style="text;strokeColor=none;fillColor=none;align=left;verticalAlign=top;spacingLeft=4;spacingRight=4;overflow=hidden;rotatable=0;points=[[0,0.5],[1,0.5]];portConstraint=eastwest;" vertex="1" parent="6TZL8s2kXc8YbJ28X2sE-11">
          <mxGeometry y="26" width="140" height="22" as="geometry" />
        </mxCell>
        <mxCell id="6TZL8s2kXc8YbJ28X2sE-12" value="+ logradouro: string" style="text;strokeColor=none;fillColor=none;align=left;verticalAlign=top;spacingLeft=4;spacingRight=4;overflow=hidden;rotatable=0;points=[[0,0.5],[1,0.5]];portConstraint=eastwest;" vertex="1" parent="6TZL8s2kXc8YbJ28X2sE-11">
          <mxGeometry y="48" width="140" height="20" as="geometry" />
        </mxCell>
        <mxCell id="6TZL8s2kXc8YbJ28X2sE-14" value="+ imposto: string" style="text;strokeColor=none;fillColor=none;align=left;verticalAlign=top;spacingLeft=4;spacingRight=4;overflow=hidden;rotatable=0;points=[[0,0.5],[1,0.5]];portConstraint=eastwest;" vertex="1" parent="6TZL8s2kXc8YbJ28X2sE-11">
          <mxGeometry y="68" width="140" height="20" as="geometry" />
        </mxCell>
        <mxCell id="6TZL8s2kXc8YbJ28X2sE-22" style="edgeStyle=none;rounded=0;jumpStyle=none;jumpSize=8;orthogonalLoop=1;jettySize=auto;html=1;endArrow=diamondThin;endFill=1;startSize=9;endSize=15;sourcePerimeterSpacing=0;targetPerimeterSpacing=0;strokeColor=default;strokeWidth=2;" edge="1" parent="1" source="6TZL8s2kXc8YbJ28X2sE-15" target="6TZL8s2kXc8YbJ28X2sE-11">
          <mxGeometry relative="1" as="geometry" />
        </mxCell>
        <mxCell id="6TZL8s2kXc8YbJ28X2sE-15" value="PessoaJuridica" style="swimlane;fontStyle=0;childLayout=stackLayout;horizontal=1;startSize=26;fillColor=none;horizontalStack=0;resizeParent=1;resizeParentMax=0;resizeLast=0;collapsible=1;marginBottom=0;" vertex="1" parent="1">
          <mxGeometry x="320" y="290" width="140" height="78" as="geometry" />
        </mxCell>
        <mxCell id="6TZL8s2kXc8YbJ28X2sE-16" value="+ cnpj: string" style="text;strokeColor=none;fillColor=none;align=left;verticalAlign=top;spacingLeft=4;spacingRight=4;overflow=hidden;rotatable=0;points=[[0,0.5],[1,0.5]];portConstraint=eastwest;" vertex="1" parent="6TZL8s2kXc8YbJ28X2sE-15">
          <mxGeometry y="26" width="140" height="26" as="geometry" />
        </mxCell>
        <mxCell id="6TZL8s2kXc8YbJ28X2sE-17" value="+ razÃ£o social: string" style="text;strokeColor=none;fillColor=none;align=left;verticalAlign=top;spacingLeft=4;spacingRight=4;overflow=hidden;rotatable=0;points=[[0,0.5],[1,0.5]];portConstraint=eastwest;" vertex="1" parent="6TZL8s2kXc8YbJ28X2sE-15">
          <mxGeometry y="52" width="140" height="26" as="geometry" />
        </mxCell>
      </root>
    </mxGraphModel>
  </diagram>
</mxfile>
